<svg width="37" height="37" viewBox="0 0 27 27" fill="none" xmlns="http://www.w3.org/2000/svg">
<path d="M19.1811 22.815C18.0786 23.8838 16.8748 23.715 15.7161 23.2088C14.4898 22.6913 13.3648 22.6688 12.0711 23.2088C10.4511 23.9063 9.59607 23.7038 8.62857 22.815C3.13857 17.1563 3.94857 8.53875 10.1811 8.22375C11.6998 8.3025 12.7573 9.05625 13.6461 9.12375C14.9736 8.85375 16.2448 8.0775 17.6623 8.17875C19.3611 8.31375 20.6436 8.98875 21.4873 10.2038C17.9773 12.3075 18.8098 16.9313 22.0273 18.225C21.3861 19.9125 20.5536 21.5888 19.1698 22.8263L19.1811 22.815ZM13.5336 8.15625C13.3648 5.6475 15.4011 3.5775 17.7411 3.375C18.0673 6.2775 15.1086 8.4375 13.5336 8.15625Z" fill="white"/>
</svg>
